<svg version="1.1" viewBox="0.0 0.0 1444.0 1036.0" fill="none" stroke="none" stroke-linecap="square" stroke-miterlimit="10" xmlns:xlink="http://www.w3.org/1999/xlink" xmlns="http://www.w3.org/2000/svg"><clipPath id="p.0"><path d="m0 0l1444.0 0l0 1036.0l-1444.0 0l0 -1036.0z" clip-rule="nonzero"/></clipPath><g clip-path="url(#p.0)"><path fill="#000000" fill-opacity="0.0" d="m0 0l1444.0 0l0 1036.0l-1444.0 0z" fill-rule="evenodd"/><path fill="#434343" d="m721.2454 653.1225l0.16265869 -38.90216l-152.82404 -90.798584l-0.16265869 38.90216z" fill-rule="evenodd"/><path stroke="#434343" stroke-width="1.984251968503937" stroke-linejoin="round" stroke-linecap="butt" d="m721.2454 653.1225l0.16265869 -38.90216l-152.82404 -90.798584l-0.16265869 38.90216z" fill-rule="evenodd"/><path fill="#434343" d="m568.2402 562.4764l-27.968506 -16.002441l27.968506 -23.052673z" fill-rule="evenodd"/><path stroke="#434343" stroke-width="1.984251968503937" stroke-linejoin="round" stroke-linecap="butt" d="m568.2402 562.4764l-27.968506 -16.002441l27.968506 -23.052673z" fill-rule="evenodd"/><path fill="#999999" d="m722.7546 653.1225l-0.16259766 -38.90216l152.82404 -90.798584l0.16259766 38.90216z" fill-rule="evenodd"/><path stroke="#999999" stroke-width="1.984251968503937" stroke-linejoin="round" stroke-linecap="butt" d="m722.7546 653.1225l-0.16259766 -38.90216l152.82404 -90.798584l0.16259766 38.90216z" fill-rule="evenodd"/><path fill="#999999" d="m875.7599 562.4764l27.968506 -16.002441l-27.968506 -23.052673z" fill-rule="evenodd"/><path stroke="#999999" stroke-width="1.984251968503937" stroke-linejoin="round" stroke-linecap="butt" d="m875.7599 562.4764l27.968506 -16.002441l-27.968506 -23.052673z" fill-rule="evenodd"/><path fill="#666666" d="m569.8097 522.3123l152.49213 -91.96454l152.49213 91.96454l-152.49213 91.9646z" fill-rule="evenodd"/><path stroke="#666666" stroke-width="1.984251968503937" stroke-linejoin="round" stroke-linecap="butt" d="m569.8097 522.3123l152.49213 -91.96454l152.49213 91.96454l-152.49213 91.9646z" fill-rule="evenodd"/><defs><radialGradient id="p.1" gradientUnits="userSpaceOnUse" gradientTransform="matrix(15.14731832571792 0.0 0.0 15.14731832571792 0.0 0.0)" spreadMethod="pad" cx="47.665300744271974" cy="35.17900552128705" fx="47.665300744271974" fy="35.17900552128705" r="15.147317886352539"><stop offset="0.0" stop-color="#d9d2e9"/><stop offset="0.5" stop-color="#d9d2e9" stop-opacity="0.0"/><stop offset="0.50000006" stop-color="#ffffff" stop-opacity="0.0"/><stop offset="1.0" stop-color="#ffffff" stop-opacity="0.0"/></radialGradient></defs><path fill="url(#p.1)" d="m556.8361 532.8676c0 -87.95679 73.94708 -159.25986 165.16534 -159.25986c43.804565 0 85.81506 16.779114 116.78955 46.64612c30.974548 29.867004 48.375793 70.3754 48.375793 112.61374c0 87.95679 -73.94702 159.25983 -165.16534 159.25983c-91.21826 0 -165.16534 -71.30304 -165.16534 -159.25983z" fill-rule="evenodd"/><defs><radialGradient id="p.2" gradientUnits="userSpaceOnUse" gradientTransform="matrix(13.403397411548909 0.0 0.0 13.403397411548909 0.0 0.0)" spreadMethod="pad" cx="53.867037600023146" cy="38.968554582437655" fx="53.867037600023146" fy="38.968554582437655" r="13.403397560119629"><stop offset="0.0" stop-color="#d9d2e9"/><stop offset="0.99999994" stop-color="#d9d2e9" stop-opacity="0.0"/><stop offset="1.0" stop-color="#ffffff" stop-opacity="0.0"/></radialGradient></defs><path fill="url(#p.2)" d="m568.4147 522.31104l153.58667 -93.19687l153.58661 93.19687l-153.58661 93.19684z" fill-rule="evenodd"/><path fill="#999999" d="m723.0954 600.33704l-0.17089844 -40.839783l123.700134 -73.4975l0.1708374 40.839783z" fill-rule="evenodd"/><path stroke="#999999" stroke-width="2.083989501312336" stroke-linejoin="round" stroke-linecap="butt" d="m723.0954 600.33704l-0.17089844 -40.839783l123.700134 -73.4975l0.1708374 40.839783z" fill-rule="evenodd"/><path fill="#999999" d="m847.6249 526.9996l29.361328 -16.799347l-29.361328 -24.200714z" fill-rule="evenodd"/><path stroke="#999999" stroke-width="2.083989501312336" stroke-linejoin="round" stroke-linecap="butt" d="m847.6249 526.9996l29.361328 -16.799347l-29.361328 -24.200714z" fill-rule="evenodd"/><path fill="#434343" d="m721.5111 600.33704l0.1708374 -40.839783l-123.70007 -73.4975l-0.17089844 40.839783z" fill-rule="evenodd"/><path stroke="#434343" stroke-width="2.083989501312336" stroke-linejoin="round" stroke-linecap="butt" d="m721.5111 600.33704l0.1708374 -40.839783l-123.70007 -73.4975l-0.17089844 40.839783z" fill-rule="evenodd"/><path fill="#434343" d="m596.9816 526.9996l-29.361328 -16.799347l29.361328 -24.200714z" fill-rule="evenodd"/><path stroke="#434343" stroke-width="2.083989501312336" stroke-linejoin="round" stroke-linecap="butt" d="m596.9816 526.9996l-29.361328 -16.799347l29.361328 -24.200714z" fill-rule="evenodd"/><path fill="#666666" d="m598.847 484.9938l123.77588 -73.22699l123.77582 73.22699l-123.77582 73.22702z" fill-rule="evenodd"/><path stroke="#666666" stroke-width="2.083989501312336" stroke-linejoin="round" stroke-linecap="butt" d="m598.847 484.9938l123.77588 -73.22699l123.77582 73.22699l-123.77582 73.22702z" fill-rule="evenodd"/><path fill="#999999" d="m722.65436 542.95685l-0.25183105 -59.835815l71.47748 -42.450134l0.25183105 59.835846z" fill-rule="evenodd"/><path stroke="#999999" stroke-width="2.089238845144357" stroke-linejoin="round" stroke-linecap="butt" d="m722.65436 542.95685l-0.25183105 -59.835815l71.47748 -42.450134l0.25183105 59.835846z" fill-rule="evenodd"/><path fill="#999999" d="m794.68134 500.1573l45.660034 -26.510681l-45.660034 -32.772095z" fill-rule="evenodd"/><path stroke="#999999" stroke-width="2.089238845144357" stroke-linejoin="round" stroke-linecap="butt" d="m794.68134 500.1573l45.660034 -26.510681l-45.660034 -32.772095z" fill-rule="evenodd"/><path fill="#434343" d="m721.95245 542.95685l0.25183105 -59.835815l-71.47748 -42.450134l-0.25183105 59.835846z" fill-rule="evenodd"/><path stroke="#434343" stroke-width="2.089238845144357" stroke-linejoin="round" stroke-linecap="butt" d="m721.95245 542.95685l0.25183105 -59.835815l-71.47748 -42.450134l-0.25183105 59.835846z" fill-rule="evenodd"/><path fill="#434343" d="m649.9255 500.1573l-45.660034 -26.510681l45.660034 -32.772095z" fill-rule="evenodd"/><path stroke="#434343" stroke-width="2.089238845144357" stroke-linejoin="round" stroke-linecap="butt" d="m649.9255 500.1573l-45.660034 -26.510681l45.660034 -32.772095z" fill-rule="evenodd"/><path fill="#878787" d="m650.73096 440.01938l71.44812 -42.87198l71.44806 42.87198l-71.44806 42.87195z" fill-rule="evenodd"/><path stroke="#878787" stroke-width="2.089238845144357" stroke-linejoin="round" stroke-linecap="butt" d="m650.73096 440.01938l71.44812 -42.87198l71.44806 42.87198l-71.44806 42.87195z" fill-rule="evenodd"/><path fill="#434343" d="m650.16125 440.65225l16.26831 -16.60907l3.385254 28.924011z" fill-rule="evenodd"/><path stroke="#434343" stroke-width="2.089238845144357" stroke-linejoin="round" stroke-linecap="butt" d="m650.16125 440.65225l16.26831 -16.60907l3.385254 28.924011z" fill-rule="evenodd"/><path fill="#999999" d="m795.0825 440.65225l-16.26825 -16.60907l-3.385254 28.924011z" fill-rule="evenodd"/><path stroke="#999999" stroke-width="2.089238845144357" stroke-linejoin="round" stroke-linecap="butt" d="m795.0825 440.65225l-16.26825 -16.60907l-3.385254 28.924011z" fill-rule="evenodd"/><path fill="#999999" d="m743.69147 472.2113l-20.070618 -14.226501l0.41705322 26.541473z" fill-rule="evenodd"/><path stroke="#999999" stroke-width="2.089238845144357" stroke-linejoin="round" stroke-linecap="butt" d="m743.69147 472.2113l-20.070618 -14.226501l0.41705322 26.541473z" fill-rule="evenodd"/><path fill="#434343" d="m702.4684 473.5171l20.070618 -14.226501l-0.41711426 26.541443z" fill-rule="evenodd"/><path stroke="#434343" stroke-width="2.089238845144357" stroke-linejoin="round" stroke-linecap="butt" d="m702.4684 473.5171l20.070618 -14.226501l-0.41711426 26.541443z" fill-rule="evenodd"/><path fill="#666666" d="m738.16406 406.40814l-15.846863 -20.251984l-15.86969 20.251984z" fill-rule="evenodd"/><path stroke="#666666" stroke-width="2.089238845144357" stroke-linejoin="round" stroke-linecap="butt" d="m738.16406 406.40814l-15.846863 -20.251984l-15.86969 20.251984z" fill-rule="evenodd"/><defs><radialGradient id="p.3" gradientUnits="userSpaceOnUse" gradientTransform="matrix(-0.002844988208940775 -5.735495956803402 -5.735495956803402 0.002844988208940775 0.0 0.0)" spreadMethod="pad" cx="-69.61712368665003" cy="-128.7030731799896" fx="-69.61712368665003" fy="-128.7030731799896" r="5.7354960441589355"><stop offset="0.0" stop-color="#d9d2e9"/><stop offset="0.99999994" stop-color="#d9d2e9" stop-opacity="0.0"/><stop offset="1.0" stop-color="#ffffff" stop-opacity="0.0"/></radialGradient></defs><path fill="url(#p.3)" d="m729.7598 430.6706l17.254822 -10.162415l-0.026489258 -53.33365l-17.25476 10.162445z" fill-rule="evenodd"/><defs><radialGradient id="p.4" gradientUnits="userSpaceOnUse" gradientTransform="matrix(0.004031750112946567 -4.342194665129885 4.342194665129885 0.004031750112946567 0.0 0.0)" spreadMethod="pad" cx="-97.90634199922216" cy="162.47749418323062" fx="-97.90634199922216" fy="162.47749418323062" r="4.342194557189941"><stop offset="0.0" stop-color="#d9d2e9"/><stop offset="0.99999994" stop-color="#d9d2e9" stop-opacity="0.0"/><stop offset="1.0" stop-color="#ffffff" stop-opacity="0.0"/></radialGradient></defs><path fill="url(#p.4)" d="m713.3504 442.74408l-16.494934 -9.717346l0.022460938 -24.203888l16.494934 9.717346z" fill-rule="evenodd"/><defs><radialGradient id="p.5" gradientUnits="userSpaceOnUse" gradientTransform="matrix(0.004031750112946567 -4.342194665129885 4.342194665129885 0.004031750112946567 0.0 0.0)" spreadMethod="pad" cx="-87.44044415616075" cy="160.87079995946948" fx="-87.44044415616075" fy="160.87079995946948" r="4.342194557189941"><stop offset="0.0" stop-color="#d9d2e9"/><stop offset="0.99999994" stop-color="#d9d2e9" stop-opacity="0.0"/><stop offset="1.0" stop-color="#ffffff" stop-opacity="0.0"/></radialGradient></defs><path fill="url(#p.5)" d="m706.416 397.29266l-16.494934 -9.717377l0.022460938 -24.203888l16.494934 9.717346z" fill-rule="evenodd"/><defs><radialGradient id="p.6" gradientUnits="userSpaceOnUse" gradientTransform="matrix(7.085204732912342 0.0 0.0 7.085204732912342 0.0 0.0)" spreadMethod="pad" cx="99.48348974507634" cy="60.42146152929619" fx="99.48348974507634" fy="60.42146152929619" r="7.085204601287842"><stop offset="0.0" stop-color="#d9d2e9"/><stop offset="0.5" stop-color="#d9d2e9" stop-opacity="0.0"/><stop offset="0.50000006" stop-color="#ffffff" stop-opacity="0.0"/><stop offset="1.0" stop-color="#ffffff" stop-opacity="0.0"/></radialGradient></defs><path fill="url(#p.6)" d="m669.1286 428.09842c0 -19.47348 15.997925 -35.259827 35.7323 -35.259827c9.476807 0 18.56543 3.7148438 25.26654 10.327362c6.701111 6.612488 10.465759 15.580994 10.465759 24.932465c0 19.47348 -15.997925 35.259857 -35.7323 35.259857c-19.734375 0 -35.7323 -15.786377 -35.7323 -35.259857z" fill-rule="evenodd"/><defs><radialGradient id="p.7" gradientUnits="userSpaceOnUse" gradientTransform="matrix(7.085204732912342 0.0 0.0 7.085204732912342 0.0 0.0)" spreadMethod="pad" cx="98.50459135053315" cy="53.51045738602358" fx="98.50459135053315" fy="53.51045738602358" r="7.085204601287842"><stop offset="0.0" stop-color="#d9d2e9"/><stop offset="0.5" stop-color="#d9d2e9" stop-opacity="0.0"/><stop offset="0.50000006" stop-color="#ffffff" stop-opacity="0.0"/><stop offset="1.0" stop-color="#ffffff" stop-opacity="0.0"/></radialGradient></defs><path fill="url(#p.7)" d="m662.19293 379.13254c0 -19.47348 15.997864 -35.259827 35.73224 -35.259827c9.476807 0 18.56549 3.7148438 25.26654 10.327362c6.701111 6.612488 10.465759 15.580994 10.465759 24.932465c0 19.47348 -15.997864 35.259857 -35.7323 35.259857c-19.734375 0 -35.73224 -15.786377 -35.73224 -35.259857z" fill-rule="evenodd"/><defs><radialGradient id="p.8" gradientUnits="userSpaceOnUse" gradientTransform="matrix(7.983742682958306 0.0 0.0 7.983742682958306 0.0 0.0)" spreadMethod="pad" cx="92.45297152220246" cy="50.00697016506237" fx="92.45297152220246" fy="50.00697016506237" r="7.983742713928223"><stop offset="0.0" stop-color="#d9d2e9"/><stop offset="0.5" stop-color="#d9d2e9" stop-opacity="0.0"/><stop offset="0.50000006" stop-color="#ffffff" stop-opacity="0.0"/><stop offset="1.0" stop-color="#ffffff" stop-opacity="0.0"/></radialGradient></defs><path fill="url(#p.8)" d="m693.1916 399.24277c0 -24.970215 20.115479 -45.212585 44.92914 -45.212585c11.915955 0 23.343872 4.7634583 31.769714 13.242462c8.425842 8.479004 13.159424 19.979004 13.159424 31.970123c0 24.970245 -20.115479 45.212616 -44.92914 45.212616c-24.81366 0 -44.92914 -20.24237 -44.92914 -45.212616z" fill-rule="evenodd"/></g></svg>